<svg xmlns="http://www.w3.org/2000/svg" viewBox="0 0 520 80" width="100%" height="100%" fill="none">
  <defs>
    <linearGradient id="navGold" x1="0%" y1="0%" x2="100%" y2="100%">
      <stop offset="0%" stop-color="#E8D39E" />
      <stop offset="30%" stop-color="#D4B47A" />
      <stop offset="70%" stop-color="#C6A46A" />
      <stop offset="100%" stop-color="#AA843F" />
    </linearGradient>
  </defs>

  <!-- Left/Integrated Emblem T -->
  <g transform="translate(42, 40)">
    <path d="
      M -24 -28
      L 24 -28
      C 24 -28, 24 -19, 23 -18
      C 21 -17, 18 -18, 15 -18
      L 5 -18
      L 5 18
      C 10 18, 14 17, 16 19
      C 17 20, 17 28, 17 28
      L -17 28
      C -17 28, -17 20, -16 19
      C -14 17, -10 18, -5 18
      L -5 -18
      L -15 -18
      C -18 -18, -21 -17, -23 -18
      C -24 -19, -24 -28, -24 -28
      Z
    " fill="url(#navGold)" />
    <!-- Watch hand with pinion -->
    <circle cx="-8" cy="-2" r="3.6" fill="#0B0B0A" stroke="url(#navGold)" stroke-width="1.6" />
    <circle cx="-8" cy="-2" r="1.3" fill="url(#navGold)" />
    <path d="M -6 -3 L 16 -24 L 17 -22 L -3 0 Z" fill="url(#navGold)" />
  </g>

  <!-- Wordmark -->
  <text x="100" y="47"
        font-family="'Cinzel', 'Playfair Display', serif"
        font-size="30"
        font-weight="600"
        letter-spacing="9"
        fill="url(#navGold)">
    TAVAKOLI
  </text>
  <text x="102" y="67"
        font-family="'Cinzel', 'Montserrat', sans-serif"
        font-size="8.5"
        font-weight="600"
        letter-spacing="5.5"
        fill="url(#navGold)"
        opacity="0.8">
    WATCH GALLERY
  </text>
</svg>
